<svg height="24" viewBox="0 0 24 24" width="24" xmlns="http://www.w3.org/2000/svg"><g fill="none" transform="translate(5 1)"><path d="m3.52634615 21.0263462c1.94654308 0 3.52634616-1.5798031 3.52634616-3.5263462v-3.5263462h-3.52634616c-1.94654307 0-3.52634615 1.5798031-3.52634615 3.5263462s1.57980308 3.5263462 3.52634615 3.5263462z" fill="#0acf83"/><path d="m.05269231 10.5790385c0-1.94654312 1.55345692-3.5790385 3.5-3.5790385h3.5v7h-3.5c-1.94654308 0-3.5-1.4744185-3.5-3.4209615z" fill="#a259ff"/><path d="m14.0526923 10.5c0 1.932-1.568 3.5-3.5 3.5-1.93199999 0-3.49999999-1.568-3.49999999-3.5s1.568-3.5 3.49999999-3.5c1.932 0 3.5 1.568 3.5 3.5z" fill="#1abcfe"/><path d="m.05269231 3.57903846c0-1.94654308 1.55345692-3.57903846 3.5-3.57903846h3.5v7h-3.5c-1.94654308 0-3.5-1.47441846-3.5-3.42096154z" fill="#f24e1e"/><path d="m7.05269231 3.57903846c0-1.94654308 1.55345692-3.57903846 3.49999999-3.57903846h3.5v7h-3.5c-1.94654307 0-3.49999999-1.47441846-3.49999999-3.42096154z" fill="#ff7262" transform="matrix(-1 0 0 1 21.105384 0)"/></g></svg>