<svg height="16" viewBox="0 0 16 16" width="16" xmlns="http://www.w3.org/2000/svg" xmlns:xlink="http://www.w3.org/1999/xlink"><filter id="a"><feColorMatrix in="SourceGraphic" type="matrix" values="0 0 0 0 0.000000 0 0 0 0 0.000000 0 0 0 0 0.000000 0 0 0 1.000000 0"/></filter><g fill="none" fill-rule="evenodd" filter="url(#a)" transform="translate(-8 -8)"><g transform="translate(8 8)"><path d="m3.8458278.5h8.3083444c1.1956795 0 1.636289.10682165 2.0752969.34160566.4004659.21417146.7147538.52845939.9289252.92892521.2347841.43900793.3416057.87961743.3416057 2.07529693v8.3083444c0 1.1956795-.1068216 1.636289-.3416057 2.0752969-.2141714.4004659-.5284593.7147538-.9289252.9289252-.4390079.2347841-.8796174.3416057-2.0752969.3416057h-8.3083444c-1.1956795 0-1.636289-.1068216-2.07529693-.3416057-.40046582-.2141714-.71475375-.5284593-.92892521-.9289252-.23478401-.4390079-.34160566-.8796174-.34160566-2.0752969v-8.3083444c0-1.1956795.10682165-1.636289.34160566-2.07529693.21417146-.40046582.52845939-.71475375.92892521-.92892521.43900793-.23478401.87961743-.34160566 2.07529693-.34160566z" stroke="#000"/><path d="m8 1c-.66666667 2.66666667-1 5-1 7h2c-.33333333 2.6666667-.33333333 5 0 7" stroke="#000" stroke-linecap="round" stroke-linejoin="round"/><rect fill="#000" height="3" rx=".5" width="1" x="4" y="4"/><rect fill="#000" height="3" rx=".5" width="1" x="11" y="4"/><path d="m4 10c.66666667 1.3333333 2 2 4 2s3.3333333-.6666667 4-2" stroke="#000" stroke-linecap="round"/></g></g></svg>