<svg height="16" viewBox="0 0 16 16" width="16" xmlns="http://www.w3.org/2000/svg"><g fill="none" fill-rule="evenodd" transform="translate(-8 -8)"><g opacity=".25" stroke="#000" transform="translate(8 8)"><path d="m10.2312583.5h-4.4625166c-1.86431855 0-2.54739274.17644086-3.2308451.54195518-.64491027.34490179-1.15103963.85103115-1.49594142 1.49594142-.36551432.68345236-.54195518 1.36652655-.54195518 3.2308451v4.4625166c0 1.8643186.17644086 2.5473927.54195518 3.2308451.34490179.6449103.85103115 1.1510396 1.49594142 1.4959414.68345236.3655143 1.36652655.5419552 3.2308451.5419552h4.4625166c1.8643186 0 2.5473927-.1764409 3.2308451-.5419552.6449103-.3449018 1.1510396-.8510311 1.4959414-1.4959414.3655143-.6834524.5419552-1.3665265.5419552-3.2308451v-4.4625166c0-1.86431855-.1764409-2.54739274-.5419552-3.2308451-.3449018-.64491027-.8510311-1.15103963-1.4959414-1.49594142-.6834524-.36551432-1.3665265-.54195518-3.2308451-.54195518z"/><path d="m8 1c-.66666667 2.66666667-1 5-1 7h2c-.33333333 2.6666667-.33333333 5 0 7" stroke-linecap="round" stroke-linejoin="round"/></g><rect fill="#000" height="3" rx=".5" width="1" x="12" y="12"/><rect fill="#000" height="3" rx=".5" width="1" x="19" y="12"/><path d="m12 18c.6666667 1.3333333 2 2 4 2s3.3333333-.6666667 4-2" stroke="#000" stroke-linecap="round"/></g></svg>